<svg xmlns="http://www.w3.org/2000/svg" viewBox="0 0 420 160" role="img" aria-labelledby="title desc">
  <title id="title">Brasa Quente</title>
  <desc id="desc">Logo da lanchonete Brasa Quente</desc>
  <rect width="420" height="160" rx="28" fill="#fff5e7"/>
  <rect x="10" y="10" width="400" height="140" rx="24" fill="#15110f"/>
  <circle cx="88" cy="80" r="48" fill="#d12e24"/>
  <path d="M88 34c15 18 30 33 30 56 0 22-14 38-30 38s-30-16-30-38c0-23 15-38 30-56Z" fill="#f2b326"/>
  <path d="M90 57c8 13 17 23 17 37 0 13-8 23-18 23-11 0-19-10-19-23 0-15 11-24 20-37Z" fill="#fff5e7"/>
  <path d="M46 117h84" stroke="#f2b326" stroke-width="9" stroke-linecap="round"/>
  <path d="M57 132h62" stroke="#d12e24" stroke-width="9" stroke-linecap="round"/>
  <text x="158" y="75" fill="#fff5e7" font-family="Arial Black, Impact, sans-serif" font-size="40" font-weight="900">BRASA</text>
  <text x="158" y="119" fill="#f2b326" font-family="Arial Black, Impact, sans-serif" font-size="43" font-weight="900">QUENTE</text>
  <path d="M158 130h202" stroke="#d12e24" stroke-width="7" stroke-linecap="round"/>
</svg>
